<?xml version="1.0" standalone="no"?>
<!DOCTYPE svg PUBLIC "-//W3C//DTD SVG 20010904//EN"
 "http://www.w3.org/TR/2001/REC-SVG-20010904/DTD/svg10.dtd">
<svg version="1.0" xmlns="http://www.w3.org/2000/svg"
 width="640.000000pt" height="640.000000pt" viewBox="0 0 640.000000 640.000000"
 preserveAspectRatio="xMidYMid meet">
<metadata>
Created by potrace 1.14, written by Peter Selinger 2001-2017
</metadata>
<g transform="translate(0.000000,640.000000) scale(0.100000,-0.100000)"
fill="#000000" stroke="none">
<path d="M2939 6396 c-2 -2 -35 -6 -74 -10 -115 -11 -143 -15 -240 -31 -313
-51 -699 -195 -1005 -373 -162 -94 -470 -309 -470 -327 0 -2 28 14 62 37 71
47 321 178 399 209 30 11 68 27 84 34 86 40 352 120 500 149 116 23 155 30
255 42 189 23 568 23 685 0 11 -2 45 -7 76 -10 58 -7 65 -8 159 -27 77 -15
120 -26 158 -37 18 -6 36 -11 40 -12 4 0 23 -5 42 -10 19 -5 37 -9 40 -9 7 -1
199 -69 225 -80 11 -5 49 -21 85 -36 36 -15 126 -59 200 -97 332 -172 642
-417 870 -688 30 -36 58 -67 61 -70 17 -13 185 -251 235 -332 66 -106 89 -149
155 -273 70 -133 54 -127 330 -127 291 0 359 3 359 13 0 17 -129 286 -186 389
-55 99 -138 235 -146 238 -5 2 -8 8 -8 14 0 6 -13 27 -30 48 -16 21 -30 42
-30 48 0 6 -3 12 -7 14 -5 2 -33 37 -64 78 -159 212 -340 395 -594 599 -165
131 -502 316 -735 404 -36 13 -74 28 -85 32 -11 4 -26 9 -33 11 -8 1 -21 6
-30 10 -9 4 -19 8 -22 9 -3 1 -36 11 -75 23 -82 25 -179 51 -215 58 -14 3 -33
7 -42 10 -18 5 -46 11 -93 19 -16 3 -37 8 -45 10 -8 2 -33 7 -55 10 -23 3 -50
7 -60 9 -11 2 -49 7 -85 11 -36 4 -78 9 -95 12 -33 5 -491 14 -496 9z"/>
<path d="M2697 6034 c-1 -1 -40 -4 -87 -8 -47 -3 -101 -7 -120 -10 -19 -2 -60
-7 -91 -11 -30 -3 -114 -19 -185 -36 -71 -16 -140 -32 -153 -35 -125 -27 -402
-133 -580 -222 -176 -88 -185 -94 -189 -104 -2 -4 -8 -8 -13 -8 -17 0 -244
-159 -305 -215 -7 -5 -31 -26 -55 -45 -62 -49 -259 -250 -305 -310 -21 -27
-42 -50 -46 -50 -4 0 -8 -5 -8 -10 0 -6 -9 -21 -21 -33 -21 -23 -170 -244
-206 -307 -42 -72 -135 -247 -138 -260 -1 -3 -5 -13 -10 -23 -13 -30 -26 -28
220 -28 88 0 192 0 230 -1 79 -2 143 8 164 25 17 14 61 82 77 117 24 54 131
220 212 329 128 171 388 426 532 521 12 8 28 20 34 25 6 6 48 34 94 64 240
153 484 261 747 331 66 18 131 34 145 36 14 3 39 7 55 11 17 4 32 7 35 8 10 2
126 18 155 21 156 16 421 20 510 8 22 -3 47 -5 55 -6 34 0 286 -44 345 -60 22
-5 48 -12 58 -14 42 -8 266 -88 374 -134 64 -27 119 -47 122 -44 3 2 -5 7 -17
11 -12 3 -22 9 -22 14 0 5 -4 9 -10 9 -5 0 -38 17 -72 38 -222 136 -621 297
-838 338 -14 2 -31 7 -38 9 -7 2 -34 7 -60 11 -26 3 -50 8 -53 10 -6 4 -145
21 -239 30 -60 6 -299 12 -303 8z"/>
<path d="M3257 5043 c-1 0 -32 -4 -69 -7 -37 -4 -77 -9 -90 -12 -13 -2 -39 -7
-58 -10 -212 -34 -458 -120 -710 -250 l-125 -64 69 1 c59 1 83 8 160 44 152
71 185 85 199 85 7 0 17 4 23 9 8 7 98 39 134 46 8 2 34 10 58 19 23 8 46 15
50 15 4 0 48 10 97 22 50 11 108 23 130 26 62 8 374 8 430 1 28 -4 68 -10 90
-13 90 -12 146 -22 200 -37 22 -5 51 -12 65 -14 80 -14 244 -84 254 -109 15
-40 -74 -70 -264 -90 -30 -3 -66 -8 -80 -10 -14 -2 -58 -7 -97 -10 -57 -5 -73
-3 -73 7 1 31 18 38 101 43 144 9 266 26 316 46 l28 11 -41 18 c-37 16 -157
54 -209 66 -160 36 -340 57 -490 57 -101 1 -230 -8 -256 -17 -8 -3 -30 -7 -49
-10 -139 -21 -580 -170 -580 -197 0 -3 33 -5 73 -3 244 8 1087 22 1087 18 0
-2 -5 -15 -12 -29 -9 -20 -19 -25 -47 -26 -20 -1 -47 -2 -61 -4 -57 -6 -226
-18 -242 -17 -10 0 -18 -4 -18 -9 0 -6 256 -10 723 -9 397 1 731 -1 742 -3 11
-3 42 -8 69 -11 27 -4 65 -16 85 -26 l36 -19 -40 -1 c-22 -1 -62 -4 -90 -6
-27 -2 -71 -5 -97 -7 -70 -3 -49 -13 34 -15 150 -4 211 -10 219 -23 11 -19 39
-146 39 -180 0 -29 0 -29 65 -29 l64 0 -5 43 c-4 33 -17 97 -29 147 -1 3 -8
19 -15 35 -7 17 -13 57 -13 90 0 70 25 126 80 179 l36 35 -53 -4 c-66 -5 -141
-41 -200 -96 l-45 -42 -230 -4 c-126 -2 -237 -6 -245 -9 -10 -3 -12 -2 -5 4 6
6 66 13 135 17 210 11 284 15 300 18 8 2 30 17 49 34 l34 32 -44 -4 c-24 -3
-55 -7 -69 -11 -79 -19 -136 -21 -208 -10 -49 8 -211 56 -287 86 -193 74 -367
130 -454 145 -19 3 -37 7 -40 9 -3 2 -31 7 -61 11 -30 4 -57 8 -60 10 -17 10
-404 27 -413 18z"/>
<path d="M2596 4683 c-1 -2 -88 -5 -192 -9 -104 -3 -218 -7 -254 -9 -173 -8
-319 -17 -354 -20 -21 -3 -70 -7 -110 -10 -39 -3 -82 -8 -96 -10 -14 -2 -44
-7 -67 -10 -138 -17 -301 -65 -374 -110 -57 -36 -111 -93 -138 -147 l-21 -43
81 -3 c75 -3 83 -1 97 20 25 36 80 84 120 104 20 10 44 24 52 30 8 6 42 19 75
29 148 46 239 62 460 80 87 7 163 13 240 21 33 3 92 7 130 10 97 7 168 12 250
18 39 3 108 8 155 12 47 3 105 8 130 9 25 2 81 6 125 9 44 3 118 8 165 11 47
4 102 7 122 9 21 1 41 5 44 9 4 3 -138 5 -316 4 -177 -1 -323 -3 -324 -4z"/>
<path d="M3250 4681 c0 -4 11 -6 25 -3 14 2 25 6 25 8 0 2 -11 4 -25 4 -14 0
-25 -4 -25 -9z"/>
<path d="M3210 4640 c0 -6 7 -10 15 -10 8 0 15 2 15 4 0 2 -7 6 -15 10 -8 3
-15 1 -15 -4z"/>
<path d="M3239 4562 c-43 -11 -45 -13 -25 -24 24 -14 214 -14 228 0 7 7 3 12
-13 17 -24 8 -168 13 -190 7z"/>
<path d="M4097 4524 c-1 -2 -20 -5 -42 -8 -65 -7 -184 -60 -226 -100 -27 -24
-18 -31 18 -13 51 26 166 50 258 52 126 4 215 -12 328 -60 41 -17 12 13 -50
53 -44 27 -60 42 -47 43 144 7 175 12 162 24 -5 5 -396 13 -401 9z"/>
<path d="M4510 4512 c0 -8 90 -4 99 4 2 2 -19 4 -47 4 -29 0 -52 -4 -52 -8z"/>
<path d="M3241 4506 c9 -9 101 -12 137 -6 28 6 15 8 -52 9 -49 0 -87 -1 -85
-3z"/>
<path d="M1753 4468 c-96 -20 -253 -102 -253 -134 0 -3 6 -2 13 3 16 13 130
51 182 60 123 22 329 -1 427 -47 49 -23 40 -1 -13 31 -22 13 -47 30 -54 37 -7
6 -19 12 -26 12 -7 0 -10 2 -7 5 5 6 149 18 211 18 20 0 37 4 37 8 0 5 -60 9
-132 10 -73 0 -181 1 -240 2 -59 1 -124 -1 -145 -5z"/>
<path d="M2288 4463 c6 -2 18 -2 25 0 6 3 1 5 -13 5 -14 0 -19 -2 -12 -5z"/>
<path d="M123 3808 c-2 -5 -12 -8 -21 -8 -9 0 -27 -15 -39 -33 l-23 -33 0
-543 c0 -588 -1 -576 54 -611 18 -12 498 -14 3088 -15 1687 0 3080 3 3095 7
16 4 38 22 50 40 l22 31 0 550 0 550 -33 33 c-22 22 -44 34 -62 35 -185 5
-6127 2 -6131 -3z m819 -377 c12 -2 6 -131 -6 -131 -148 -4 -214 -9 -229 -15
-33 -14 -46 -57 -43 -139 4 -108 26 -122 192 -121 56 0 95 -4 97 -10 2 -5 3
-35 3 -65 l-1 -55 -140 -3 c-206 -4 -263 15 -305 105 -17 37 -23 70 -26 145
-7 184 44 268 174 287 35 5 247 6 284 2z m421 -2 c44 -12 47 -16 147 -259 40
-96 81 -195 91 -219 10 -24 19 -47 19 -52 0 -5 -41 -9 -90 -9 -78 0 -91 3 -96
18 -3 9 -9 26 -14 37 -5 11 -11 28 -14 38 -6 19 -42 22 -183 18 -17 -1 -26
-13 -41 -53 l-20 -53 -91 -3 c-50 -1 -91 -1 -91 2 0 5 83 212 105 261 8 17 32
75 55 130 42 103 61 132 95 146 28 11 84 11 128 -2z m781 -20 c90 -61 78 -304
-17 -344 -17 -7 -37 -11 -44 -8 -25 10 -12 -14 35 -64 26 -28 58 -62 71 -77
l24 -26 -104 0 -105 0 -55 76 c-29 41 -59 81 -65 88 -32 34 -27 97 9 113 12 5
42 10 67 12 50 3 70 20 70 62 0 45 -20 56 -104 57 -48 1 -78 -3 -83 -11 -5 -7
-9 -91 -10 -187 0 -96 -2 -183 -2 -192 -1 -16 -12 -18 -86 -18 -61 0 -85 4
-86 13 -1 6 -1 117 -1 245 0 228 0 234 22 257 28 30 29 30 247 29 175 -1 184
-2 217 -25z m779 22 c4 -1 7 -30 7 -66 l0 -65 -42 -1 c-24 0 -94 -1 -155 -1
-99 -1 -113 -3 -113 -18 0 -11 18 -21 63 -34 264 -74 274 -82 271 -214 -1 -69
-4 -76 -33 -105 l-31 -32 -220 -3 -220 -3 -1 48 c-2 53 1 76 8 83 2 3 74 5
158 5 85 0 157 4 161 7 18 19 -19 38 -126 63 -171 41 -210 80 -204 202 5 85
35 123 108 135 17 3 348 2 369 -1z m570 0 c4 -1 6 -30 5 -66 l-3 -64 -140 0
c-116 -1 -142 -3 -152 -16 -6 -9 -10 -24 -8 -33 2 -9 4 -19 4 -22 1 -3 66 -4
145 -4 l144 1 4 -49 c1 -28 0 -55 -4 -61 -4 -6 -60 -11 -149 -11 l-143 -1 -1
-28 c-3 -49 13 -55 142 -55 65 0 129 -1 143 -1 24 -1 25 -3 22 -66 l-4 -65
-214 0 c-215 0 -215 0 -239 25 l-25 24 0 219 c0 205 1 221 20 245 11 14 30 27
43 29 19 3 387 2 410 -1z m424 -2 c32 -10 52 -42 105 -169 6 -14 15 -33 20
-44 5 -10 11 -26 13 -35 2 -9 29 -74 59 -146 31 -71 56 -133 56 -138 0 -4 -41
-6 -91 -5 l-90 3 -22 54 -22 54 -93 0 c-51 -1 -96 -4 -100 -8 -4 -3 -14 -27
-23 -53 l-16 -47 -91 -3 c-51 -1 -92 1 -92 5 0 7 76 193 114 278 8 17 26 62
41 100 37 96 64 141 89 153 28 12 103 13 143 1z m755 -8 c53 -18 80 -77 80
-176 0 -118 -52 -200 -119 -189 -13 2 -23 2 -23 -1 0 -2 26 -31 58 -63 31 -33
66 -69 76 -81 l19 -21 -105 0 -105 0 -69 93 c-56 76 -68 99 -68 130 -1 44 18
60 74 64 77 5 99 28 84 87 -7 28 -29 36 -102 36 -92 0 -89 4 -90 -182 -1 -90
-1 -178 -1 -195 l-1 -33 -84 0 c-58 0 -85 4 -88 13 -3 10 -2 389 1 465 1 27
32 55 68 62 54 10 358 3 395 -9z m594 10 c6 -1 11 -28 12 -66 l1 -65 -72 -1
c-156 -1 -179 -8 -202 -55 -12 -26 -15 -52 -12 -102 5 -56 9 -70 32 -89 28
-25 26 -25 165 -27 l95 -1 1 -68 0 -68 -160 2 c-175 2 -205 9 -253 58 -41 40
-58 107 -57 221 1 177 46 241 181 258 46 6 222 8 269 3z m256 -93 l-1 -97 98
1 98 0 0 89 c0 49 3 93 7 96 4 4 43 7 86 8 64 0 80 -3 81 -15 1 -8 2 -131 3
-272 l1 -258 -87 0 c-71 0 -88 3 -89 15 0 8 -1 57 -2 108 l-2 92 -95 0 -95 0
-2 -40 c-1 -22 -2 -70 -2 -107 l-1 -68 -87 0 -88 0 0 267 c0 307 -11 278 107
277 l70 0 0 -96z"/>
<path d="M1285 3238 c-4 -18 -11 -37 -15 -43 -4 -5 -11 -24 -14 -41 l-7 -30
48 2 c67 3 67 3 55 17 -6 6 -10 14 -11 17 0 10 -13 45 -22 62 -5 10 -9 25 -9
33 0 28 -18 15 -25 -17z"/>
<path d="M3819 3199 c-17 -43 -22 -69 -15 -70 6 -1 30 -2 54 -3 42 -1 43 -1
36 29 -3 16 -9 35 -12 40 -4 6 -8 19 -10 30 -1 11 -8 25 -15 32 -9 9 -18 -3
-38 -58z"/>
<path d="M1825 2083 c-101 -35 -135 -140 -66 -203 26 -24 84 -50 113 -50 4 0
32 -9 62 -20 65 -25 77 -50 41 -86 -34 -34 -110 -35 -185 -3 -42 19 -45 19
-57 3 -21 -29 -15 -51 20 -67 155 -74 334 -10 321 115 -2 23 -12 50 -21 61
-21 23 -87 53 -132 60 -56 9 -106 40 -109 68 -7 56 76 80 167 49 l52 -17 14
27 c13 25 12 29 -5 45 -11 10 -20 15 -20 11 0 -4 -9 -2 -19 4 -31 16 -133 18
-176 3z"/>
<path d="M3961 2080 c-127 -43 -186 -160 -147 -292 34 -117 154 -181 290 -154
40 8 116 50 116 64 0 5 -11 19 -24 31 l-25 23 -32 -22 c-69 -50 -184 -28 -229
44 -41 68 -21 173 42 219 44 32 123 34 180 4 l46 -25 22 23 c26 28 22 37 -33
69 -56 33 -138 40 -206 16z"/>
<path d="M2179 2068 c0 -13 -1 -116 -2 -229 l-2 -206 172 0 171 -1 4 30 c3 16
0 32 -6 35 -6 4 -64 7 -131 7 l-120 1 0 60 0 60 108 3 c59 1 107 7 108 12 7
58 12 55 -106 60 l-110 5 0 55 0 55 119 2 c73 2 122 7 126 13 4 6 5 22 2 36
l-4 24 -164 0 c-163 0 -164 0 -165 -22z"/>
<path d="M2631 1862 l0 -230 42 2 42 1 1 55 c1 30 2 60 3 66 1 7 23 11 61 10
l60 -1 44 -66 c43 -64 45 -65 90 -66 52 -2 53 -6 -11 84 -23 34 -43 64 -43 66
0 3 9 7 19 10 11 2 31 23 47 46 51 78 29 177 -50 223 -36 20 -57 23 -173 26
l-131 4 -1 -230z m269 130 c26 -24 35 -88 16 -115 -25 -33 -105 -50 -191 -38
-7 1 -13 163 -6 178 1 1 37 1 80 -1 63 -3 83 -7 101 -24z"/>
<path d="M3091 2020 c16 -38 58 -135 94 -216 36 -80 65 -150 65 -154 0 -12 28
-19 65 -17 29 2 33 8 127 222 53 121 97 224 97 228 1 5 -18 7 -41 5 l-42 -3
-68 -155 c-38 -85 -72 -163 -76 -173 -6 -14 -18 5 -52 85 -24 56 -59 136 -77
176 l-33 72 -45 0 -44 0 30 -70z"/>
<path d="M3609 2068 c-1 -41 -1 -291 0 -365 l1 -72 35 1 c20 1 39 6 42 11 5 8
8 341 4 430 -1 13 -10 17 -41 17 -35 0 -40 -3 -41 -22z"/>
<path d="M4329 2088 c-1 -2 -3 -105 -4 -229 l-2 -226 171 1 171 1 1 25 c1 14
-2 30 -6 35 -5 6 -54 10 -117 9 -59 -1 -115 0 -123 2 -12 3 -14 17 -12 64 l4
60 109 0 109 0 0 35 0 35 -109 0 -109 0 -3 28 c-3 15 -2 41 1 58 l5 32 98 0
c53 1 108 1 121 1 21 1 24 6 24 35 l0 34 -164 2 c-90 0 -165 -1 -165 -2z"/>
<path d="M190 2058 c0 -10 4 -26 9 -36 5 -9 21 -48 37 -87 15 -38 48 -108 72
-155 25 -47 50 -95 56 -107 6 -13 14 -23 19 -23 4 0 7 -5 7 -10 0 -22 133
-205 250 -344 64 -77 256 -260 355 -339 124 -98 220 -167 235 -167 6 0 10 -4
10 -10 0 -5 6 -10 14 -10 8 0 16 -4 18 -8 10 -25 344 -194 483 -245 39 -14 79
-29 90 -33 11 -4 22 -8 25 -8 3 -1 10 -4 15 -7 6 -4 26 -10 45 -14 19 -4 40
-10 45 -13 6 -4 15 -7 20 -8 6 -1 30 -7 55 -14 94 -25 274 -60 390 -75 179
-23 581 -24 699 0 12 2 42 7 65 9 22 3 66 10 96 16 30 6 64 13 75 15 102 20
260 64 318 88 20 9 39 16 42 17 22 3 190 73 290 121 132 62 277 143 385 215
144 96 270 222 137 137 -174 -111 -440 -226 -676 -293 -180 -51 -260 -66 -461
-89 -77 -9 -445 -7 -490 3 -14 3 -43 7 -65 10 -227 26 -497 102 -745 208 -63
27 -153 69 -200 94 -96 52 -319 198 -367 241 -17 15 -53 45 -80 66 -61 48
-212 201 -287 290 -114 137 -248 336 -326 484 -55 104 -29 97 -366 98 -279 1
-294 0 -294 -17z"/>
<path d="M5563 2066 c-14 -7 -47 -62 -98 -165 -93 -190 -91 -186 -191 -341
-365 -563 -891 -973 -1534 -1193 -152 -53 -376 -108 -491 -122 -24 -3 -54 -7
-66 -9 -20 -4 -111 -14 -193 -22 -54 -5 -382 -5 -410 0 -14 2 -61 7 -105 11
-44 4 -89 9 -100 11 -11 2 -36 6 -55 9 -124 17 -340 70 -470 116 -47 16 -89
31 -95 33 -21 6 -171 71 -277 119 -32 15 -58 25 -58 23 0 -2 33 -23 73 -47 39
-24 74 -47 77 -51 7 -10 317 -167 390 -197 147 -62 420 -148 529 -166 19 -3
37 -7 40 -9 3 -2 24 -7 46 -10 22 -4 47 -8 55 -11 8 -2 38 -6 65 -10 28 -3 61
-7 75 -10 155 -27 603 -27 795 0 17 3 48 7 70 9 22 3 51 8 65 11 14 2 50 9 80
15 91 17 100 19 184 40 286 73 611 209 861 359 132 80 375 252 383 273 2 4 8
8 13 8 18 0 189 -178 189 -197 1 -55 46 -113 250 -315 115 -115 213 -207 217
-206 5 0 22 -4 38 -11 38 -16 119 -10 165 12 48 23 146 118 171 166 29 56 33
114 13 177 -15 49 -36 73 -210 248 -106 108 -210 206 -231 220 -21 14 -61 29
-88 32 -46 6 -57 14 -128 85 l-78 79 67 77 c117 134 344 459 344 492 0 5 4 11
8 13 23 9 219 444 206 457 -10 10 -568 7 -591 -3z"/>
</g>
</svg>
