<svg width="30" height="30" viewBox="0 0 30 30" fill="none" xmlns="http://www.w3.org/2000/svg">
<path d="M12.5 15H6.25C5.91848 15 5.60054 14.8683 5.36612 14.6339C5.1317 14.3995 5 14.0815 5 13.75V9.375C5 9.04348 5.1317 8.72554 5.36612 8.49112C5.60054 8.2567 5.91848 8.125 6.25 8.125H11.25C11.5815 8.125 11.8995 8.2567 12.1339 8.49112C12.3683 8.72554 12.5 9.04348 12.5 9.375V15ZM12.5 15C12.5 18.125 11.25 20 7.5 21.875M25 15H18.75C18.4185 15 18.1005 14.8683 17.8661 14.6339C17.6317 14.3995 17.5 14.0815 17.5 13.75V9.375C17.5 9.04348 17.6317 8.72554 17.8661 8.49112C18.1005 8.2567 18.4185 8.125 18.75 8.125H23.75C24.0815 8.125 24.3995 8.2567 24.6339 8.49112C24.8683 8.72554 25 9.04348 25 9.375V15ZM25 15C25 18.125 23.75 20 20 21.875" stroke="#40A9FF" stroke-width="3" stroke-linecap="round"/>
</svg>
