<svg width="79" height="80" viewBox="0 0 79 80" fill="none" xmlns="http://www.w3.org/2000/svg">
<g clip-path="url(#clip0_41_33)">
<path d="M47.6841 39.1703C47.6745 39.1511 47.6673 39.1331 47.6649 39.1175C47.6613 39.1019 47.6553 39.0887 47.6457 39.0791C47.6361 39.0695 47.6277 39.0647 47.6217 39.0647L47.5342 39.2099L46.9224 40.9277H48.3199L47.7081 39.2099C47.7021 39.2039 47.6937 39.1907 47.6841 39.1715V39.1703Z" fill="white"/>
<path d="M15.8218 39.1703C15.8122 39.1511 15.805 39.1331 15.8026 39.1175C15.799 39.1019 15.793 39.0887 15.7834 39.0791C15.7738 39.0695 15.7654 39.0647 15.7594 39.0647L15.6719 39.2099L15.0601 40.9277H16.4576L15.8458 39.2099C15.8398 39.2039 15.8314 39.1907 15.8218 39.1715V39.1703Z" fill="white"/>
<path d="M77.5036 32.3433H1.36039C0.611813 32.3433 0 32.9551 0 33.7037V46.5769C0 47.3255 0.611813 47.9373 1.36039 47.9373H77.5036C78.2521 47.9373 78.864 47.3255 78.864 46.5769V33.7037C78.864 32.9551 78.2521 32.3433 77.5036 32.3433ZM11.4397 43.8777H8.46942C7.37535 43.8777 6.60758 43.6102 6.16372 43.0764C5.71986 42.5426 5.49912 41.6764 5.49912 40.4792C5.49912 39.2819 5.72106 38.4158 6.16372 37.882C6.60758 37.3481 7.37535 37.0806 8.46942 37.0806H11.3425V38.7697H9.59467C8.8497 38.7697 8.35665 38.8765 8.11433 39.09C7.872 39.3035 7.75084 39.7666 7.75084 40.478C7.75084 41.1894 7.872 41.6524 8.11433 41.866C8.35665 42.0795 8.8509 42.1863 9.59467 42.1863H11.4397V43.8753V43.8777ZM17.5171 43.8777L16.9832 42.4802H14.5372L14.0033 43.8777H11.6928L14.2073 37.8292C14.3296 37.5449 14.4988 37.3361 14.7123 37.203C14.9258 37.0698 15.2749 37.0038 15.7608 37.0038C16.1555 37.0038 16.477 37.0554 16.7265 37.1586C16.976 37.2618 17.1716 37.4849 17.3143 37.828L19.8288 43.8765H17.5183L17.5171 43.8777ZM24.5553 43.8777L23.2453 42.1107C23.2261 42.0783 23.1841 42.0219 23.1193 41.9403C23.0546 41.86 23.009 41.8 22.9838 41.7604C22.9574 41.722 22.925 41.668 22.8866 41.5996C22.8482 41.5313 22.8206 41.4641 22.8038 41.3957C22.7871 41.3273 22.7799 41.2577 22.7799 41.187V41.0418C22.7799 40.5308 23.1062 40.2752 23.76 40.2752H24.0899C24.3814 40.2752 24.5829 40.2201 24.6969 40.1097C24.8096 39.9993 24.8672 39.799 24.8672 39.5075C24.8672 39.216 24.812 39.0288 24.7017 38.9245C24.5913 38.8213 24.3874 38.7697 24.0899 38.7697H22.8374C22.5519 38.7697 22.4104 38.9125 22.4104 39.1968V43.8765H20.2162V38.1483C20.2162 37.8124 20.3098 37.5497 20.4981 37.3625C20.6853 37.1754 20.948 37.0806 21.2839 37.0806H25.1179C25.8557 37.0806 26.3644 37.2702 26.6427 37.648C26.921 38.0271 27.0601 38.6078 27.0601 39.3911C27.0601 41.0022 26.5551 41.8084 25.5462 41.8084H25.2547V41.8468L27.1969 43.8753H24.5565L24.5553 43.8777ZM36.0934 43.4075C35.8439 43.7218 35.4192 43.8777 34.817 43.8777H30.1084V42.1887H33.8753C34.1272 42.1887 34.2544 42.1179 34.2544 41.9751C34.2544 41.8852 34.2184 41.8168 34.1476 41.7712C34.0768 41.7256 33.9664 41.6812 33.8177 41.6356L31.1869 40.8979C30.4227 40.6903 30.0412 40.0149 30.0412 38.8693C30.0412 37.7236 30.5715 37.083 31.6332 37.083H36.1186V38.7721H32.6624C32.3517 38.7721 32.197 38.8429 32.197 38.9856C32.197 39.0888 32.245 39.1668 32.3421 39.2184C32.4393 39.27 32.5821 39.3191 32.7692 39.3635L35.0605 39.9753C35.5716 40.1109 35.9338 40.3364 36.1474 40.6495C36.3609 40.9638 36.4677 41.4149 36.4677 42.0039C36.4677 42.6253 36.3429 43.0932 36.0934 43.4063V43.4075ZM43.2624 43.8777H38.3115C37.9744 43.8777 37.7129 43.7842 37.5246 43.5958C37.3374 43.4087 37.2426 43.146 37.2426 42.8089V38.1495C37.2426 37.8136 37.3362 37.5509 37.5246 37.3637C37.7117 37.1766 37.9744 37.0818 38.3115 37.0818H43.224V38.7325H39.865C39.5807 38.7325 39.438 38.8753 39.438 39.1596V39.6646H43.146V41.1594H39.438V41.8C39.438 42.0855 39.5807 42.227 39.865 42.227H43.2624V43.8777ZM49.3781 43.8777L48.8443 42.4802H46.3983L45.8644 43.8777H43.5539L46.0683 37.8292C46.1907 37.5449 46.3599 37.3361 46.5734 37.203C46.7869 37.0698 47.136 37.0038 47.6219 37.0038C48.0166 37.0038 48.3381 37.0554 48.5876 37.1586C48.8371 37.2618 49.0326 37.4849 49.1754 37.828L51.6898 43.8765H49.3793L49.3781 43.8777ZM56.4164 43.8777L55.1064 42.1107C55.0872 42.0783 55.0452 42.0219 54.9804 41.9403C54.9157 41.86 54.8701 41.8 54.8449 41.7604C54.8185 41.722 54.7861 41.668 54.7477 41.5996C54.7093 41.5313 54.6817 41.4641 54.6649 41.3957C54.6481 41.3273 54.6409 41.2577 54.6409 41.187V41.0418C54.6409 40.5308 54.9672 40.2752 55.621 40.2752H55.9509C56.2424 40.2752 56.444 40.2201 56.5579 40.1097C56.6707 39.9993 56.7283 39.799 56.7283 39.5075C56.7283 39.216 56.6731 39.0288 56.5628 38.9245C56.4524 38.8213 56.2484 38.7697 55.9509 38.7697H54.6985C54.4142 38.7697 54.2715 38.9125 54.2715 39.1968V43.8765H52.0773V38.1483C52.0773 37.8124 52.1709 37.5497 52.3592 37.3625C52.5464 37.1754 52.8091 37.0806 53.1462 37.0806H56.9802C57.718 37.0806 58.2254 37.2702 58.505 37.648C58.7833 38.0271 58.9224 38.6078 58.9224 39.3911C58.9224 41.0022 58.4174 41.8084 57.4085 41.8084H57.117V41.8468L59.0592 43.8753H56.4188L56.4164 43.8777ZM65.5804 43.8777H62.6101C61.516 43.8777 60.7483 43.6102 60.3044 43.0764C59.8605 42.5426 59.6398 41.6764 59.6398 40.4792C59.6398 39.2819 59.8617 38.4158 60.3044 37.882C60.7483 37.3481 61.516 37.0806 62.6101 37.0806H65.4832V38.7697H63.7354C62.9904 38.7697 62.4973 38.8765 62.255 39.09C62.0127 39.3035 61.8903 39.7666 61.8903 40.478C61.8903 41.1894 62.0115 41.6524 62.255 41.866C62.4973 42.0795 62.9916 42.1863 63.7354 42.1863H65.5804V43.8753V43.8777ZM73.1717 43.8777H70.9776V41.1786H68.5123V43.8777H66.3182V37.0818H68.5123V39.4895H70.9776V37.0818H73.1717V43.8777Z" fill="white"/>
<path d="M21.8899 59.4875C21.4796 59.3628 21.1545 59.1972 20.9146 58.9897L21.2816 58.1655C21.5156 58.3503 21.8023 58.5014 22.1418 58.6178C22.4813 58.7354 22.8232 58.7929 23.1651 58.7929C23.5897 58.7929 23.9064 58.7246 24.1152 58.589C24.3239 58.4535 24.4295 58.2735 24.4295 58.0504C24.4295 57.8872 24.3707 57.7529 24.2543 57.6461C24.1368 57.5405 23.9892 57.4566 23.8093 57.3978C23.6293 57.339 23.3846 57.2706 23.0751 57.1938C22.6396 57.0907 22.2881 56.9875 22.0182 56.8843C21.7495 56.7812 21.518 56.6192 21.3248 56.3985C21.1317 56.1777 21.0357 55.8802 21.0357 55.5047C21.0357 55.1892 21.1209 54.9025 21.2924 54.6446C21.464 54.3867 21.7219 54.1816 22.0674 54.0292C22.4129 53.8768 22.8352 53.8013 23.3354 53.8013C23.6833 53.8013 24.0264 53.8445 24.3635 53.932C24.7006 54.0196 24.9921 54.1444 25.2368 54.3075L24.9021 55.1317C24.6514 54.9853 24.3911 54.8737 24.1188 54.797C23.8465 54.7214 23.5825 54.683 23.327 54.683C22.9083 54.683 22.5964 54.7538 22.3925 54.8953C22.1886 55.0369 22.0866 55.224 22.0866 55.458C22.0866 55.6211 22.1454 55.7543 22.2617 55.8574C22.3781 55.9606 22.5269 56.0422 22.7068 56.1022C22.8867 56.1621 23.1315 56.2305 23.441 56.3061C23.8657 56.4045 24.2135 56.5064 24.4847 56.612C24.757 56.7176 24.9885 56.8795 25.1817 57.0979C25.3748 57.315 25.4708 57.6089 25.4708 57.9784C25.4708 58.2939 25.3856 58.5794 25.214 58.8349C25.0425 59.0905 24.7834 59.2944 24.4355 59.4467C24.0876 59.5991 23.6629 59.6747 23.1627 59.6747C22.7224 59.6747 22.2965 59.6123 21.8863 59.4875H21.8899Z" fill="white"/>
<path d="M31.0132 58.7041V59.5931H26.7305V53.8828H30.8992V54.7717H27.7909V56.2569H30.5477V57.1302H27.7909V58.7041H31.0132Z" fill="white"/>
<path d="M36.1365 59.5931L34.9705 57.9208C34.9213 57.9268 34.8481 57.9292 34.7498 57.9292H33.4614V59.5931H32.4009V53.8828H34.7498C35.244 53.8828 35.6759 53.9644 36.043 54.1275C36.4101 54.2907 36.692 54.5246 36.8875 54.8293C37.0831 55.134 37.1814 55.4951 37.1814 55.9138C37.1814 56.3325 37.0771 56.7127 36.8671 57.0235C36.6572 57.333 36.3573 57.5645 35.9662 57.7168L37.2798 59.5931H36.1377H36.1365ZM35.7527 55.074C35.5139 54.8785 35.1624 54.7801 34.7006 54.7801H33.4602V57.0558H34.7006C35.1624 57.0558 35.5139 56.9563 35.7527 56.7583C35.9914 56.5604 36.1113 56.2785 36.1113 55.9138C36.1113 55.5491 35.9914 55.2696 35.7527 55.074Z" fill="white"/>
<path d="M43.7879 53.8828L41.2999 59.5931H40.2562L37.7598 53.8828H38.9102L40.8104 58.2879L42.7275 53.8828H43.7879Z" fill="white"/>
<path d="M44.5952 53.8828H45.6557V59.5931H44.5952V53.8828Z" fill="white"/>
<path d="M48.4834 59.2956C48.0179 59.0425 47.6544 58.6934 47.3905 58.2471C47.1266 57.8008 46.9946 57.2982 46.9946 56.738C46.9946 56.1777 47.1278 55.6751 47.3941 55.2288C47.6604 54.7826 48.0263 54.4335 48.4918 54.1804C48.9572 53.9272 49.4779 53.8013 50.0537 53.8013C50.5216 53.8013 50.9486 53.8828 51.3349 54.046C51.7212 54.2091 52.0475 54.4455 52.3138 54.7562L51.6288 55.4004C51.2149 54.9541 50.7075 54.731 50.1029 54.731C49.7118 54.731 49.3603 54.8162 49.0508 54.9877C48.7413 55.1593 48.499 55.3968 48.325 55.7015C48.1511 56.0062 48.0635 56.3517 48.0635 56.738C48.0635 57.1243 48.1499 57.4698 48.325 57.7745C48.499 58.0792 48.7413 58.3167 49.0508 58.4882C49.3603 58.6598 49.7118 58.745 50.1029 58.745C50.7063 58.745 51.2149 58.5194 51.6288 58.0684L52.3138 58.721C52.0475 59.0305 51.72 59.268 51.3313 59.4312C50.9426 59.5943 50.5144 59.6759 50.0465 59.6759C49.4695 59.6759 48.9488 59.5499 48.4846 59.2968L48.4834 59.2956Z" fill="white"/>
<path d="M57.8188 58.7041V59.5931H53.5361V53.8828H57.7049V54.7717H54.5966V56.2569H57.3534V57.1302H54.5966V58.7041H57.8188Z" fill="white"/>
<path d="M41.8046 21.4111C41.8046 21.4111 35.2246 21.3236 28.7706 21.5839C17.8671 22.0218 13.077 22.444 11.8857 26.1317H13.9575C13.9575 26.1317 14.7601 23.5705 21.5344 22.9407C28.8654 22.2581 41.8046 21.4123 41.8046 21.4123V21.4111Z" fill="white"/>
<path d="M41.0788 22.9299C40.2115 22.9299 39.5073 23.0439 39.5073 23.1855C39.5073 23.327 40.2103 23.441 41.0788 23.441C41.9474 23.441 42.6504 23.327 42.6504 23.1855C42.6504 23.0439 41.9474 22.9299 41.0788 22.9299Z" fill="white"/>
<path d="M39.8791 23.5813C39.9403 23.7073 40.4538 23.8057 41.0776 23.8057C41.7014 23.8057 42.246 23.7013 42.2808 23.5693C41.9497 23.6173 41.5142 23.6461 41.0356 23.6461C40.5989 23.6461 40.197 23.6221 39.8779 23.5813H39.8791Z" fill="white"/>
<path d="M58.1067 23.5585L51.1188 23.4397C49.4957 23.4397 48.0021 24.1259 46.8169 25.2775C48.1485 24.6261 49.6 24.2686 51.1188 24.2686C52.6375 24.2686 54.0891 24.6261 55.4207 25.2775C54.8041 24.6777 54.1035 24.2063 53.3441 23.8896L58.1079 23.5573L58.1067 23.5585Z" fill="white"/>
<path d="M22.3815 24.0635C20.7584 24.0635 19.2648 24.7496 18.0796 25.9013C19.4112 25.2499 20.8627 24.8924 22.3815 24.8924C23.9002 24.8924 25.3518 25.2499 26.6834 25.9013C26.0668 25.3015 25.3662 24.83 24.6068 24.5133L29.3705 24.181L22.3815 24.0623V24.0635Z" fill="white"/>
<path d="M49.1621 20.5245C49.9275 20.3889 50.4218 20.2438 50.7193 20.1274C49.1381 19.3212 45.2693 18.3171 41.2601 18.3171C40.0221 18.3171 38.8849 18.4179 37.8808 18.6158C34.2171 19.3392 31.4675 20.5293 30.1191 21.1939C32.5904 21.1771 40.0053 20.894 42.6733 21.0067C44.871 20.84 47.3543 20.8436 49.1609 20.5245H49.1621Z" fill="white"/>
<path d="M63.9332 19.572C63.9332 19.572 62.1049 19.0886 60.2347 21.2851L52.3039 21.4326L59.8352 20.9456C59.8352 20.9456 60.2275 20.425 60.7157 20.1646C60.7157 20.1646 59.9816 20.1035 58.7747 20.4262C57.7598 20.6973 56.5926 20.5773 54.3241 19.8287C52.0556 19.0802 49.3828 17.7762 45.6411 17.2207C41.6068 16.6221 38.4685 17.06 36.0657 17.5998C31.5046 18.6255 27.0708 21.2803 27.0708 21.2803L28.905 21.1999C28.905 21.1999 32.3264 19.1377 37.7715 18.0629C42.726 17.084 49.7343 18.6939 51.4162 19.8791C51.7065 20.0843 51.6681 20.3158 51.2878 20.5341C50.9015 20.7573 50.1674 20.96 49.2604 21.08C48.068 21.2371 46.5685 21.3931 45.0617 21.5334L45.7419 18.7011L44.6203 21.5742C41.3656 21.8717 38.2178 22.09 38.2178 22.09C38.2178 22.09 49.6731 22.1692 54.7847 22.09C59.3793 22.0181 60.1999 22.3924 60.7805 22.8458L56.7533 23.1265L61.0792 23.3641C61.0792 23.3641 61.5063 24.1078 61.6862 26.1376H63.2182C63.2182 26.1376 63.1642 24.3598 62.5368 23.1145C62.5368 23.1145 61.8062 21.0164 63.9344 19.572H63.9332Z" fill="white"/>
<path d="M58.1101 11.7696C62.5931 15.4908 65.8669 20.1226 68.4569 25.2823C68.7209 25.8089 69.0124 26.038 69.6242 26.0272C71.6816 25.9888 73.7401 26.0152 75.7987 26.0104C76.035 26.0104 76.2726 25.9649 76.6768 25.9229C71.2785 13.0952 62.1781 4.56938 48.7218 1.25479C35.6913 -1.95423 23.9157 1.06765 13.5293 9.53226C13.7116 9.4219 13.8964 9.31513 14.0763 9.19997C27.9537 0.303479 45.5487 1.34116 58.1101 11.7696Z" fill="#40A9FF"/>
<path d="M77.1507 74.2899L72.7984 69.9376C72.1974 69.3366 71.3888 69.0727 70.5971 69.123L68.6021 67.128C71.9826 63.4584 74.719 59.0701 76.5448 54.0496C74.2859 54.0496 72.117 54.0988 69.9517 54.0244C69.0951 53.9957 68.7196 54.2776 68.3849 55.0489C59.9023 74.6402 36.5922 83.0484 17.5924 73.3925C17.4089 73.299 17.2097 73.239 17.0166 73.1634C32.1764 83.5738 51.77 81.5776 64.8424 70.7018L67.1013 72.9607C67.1397 73.6373 67.4048 74.3031 67.9183 74.8165L72.2705 79.1688C73.3802 80.2784 75.1965 80.2784 76.3073 79.1688L77.1495 78.3266C78.2591 77.217 78.2591 75.3995 77.1495 74.2899H77.1507Z" fill="#40A9FF"/>
<path d="M43.3523 74.808C48.3908 73.5196 55.6594 69.6892 57.2693 67.4267C56.8446 67.6798 56.5087 67.8861 56.168 68.0841C46.9764 73.4225 37.3518 74.3378 27.4068 70.6141C19.5 67.6534 13.6998 62.2263 9.82615 54.7274C9.6822 54.4478 9.3367 54.0844 9.07878 54.0784C6.68311 54.0292 4.28624 54.0484 1.8042 54.0484C4.16508 61.9228 13.4646 72.6667 27.6287 75.3155C32.9047 76.3016 38.1483 76.1372 43.3499 74.8068L43.3523 74.808Z" fill="#40A9FF"/>
<path d="M8.06769 26.0356C9.10058 26.0752 9.65361 25.7849 10.1527 24.8084C17.528 10.372 35.1386 3.54131 50.314 9.19038C51.6636 9.69303 52.9796 10.2809 54.3124 10.8291C43.6896 3.98877 32.4383 2.62959 20.6854 7.36694C11.8909 10.9119 5.66842 17.2363 1.63525 26.0117C3.95895 26.0117 6.01632 25.9565 8.06769 26.0344V26.0356Z" fill="#40A9FF"/>
</g>
<defs>
<clipPath id="clip0_41_33">
<rect width="78.864" height="80" fill="white"/>
</clipPath>
</defs>
</svg>
